<svg xmlns="http://www.w3.org/2000/svg" width="16" height="16" viewBox="0 0 16 16">
  <path fill="#323233" d="M13.65 2.35C13.5 2.2 13.25 2.2 13.1 2.35L11.5 3.95C11.35 4.1 11.35 4.35 11.5 4.5L13.1 6.1C13.25 6.25 13.5 6.25 13.65 6.1L15.25 4.5C15.4 4.35 15.4 4.1 15.25 3.95L13.65 2.35ZM9 2C6.24 2 4 4.24 4 7H2L4.5 9.5L7 7H5C5 4.79 6.79 3 9 3C11.21 3 13 4.79 13 7H14C14 4.24 11.76 2 9 2ZM4.5 11L2 13.5H4C4 15.71 5.79 17.5 8 17.5C10.21 17.5 12 15.71 12 13.5H11C11 15.16 9.66 16.5 8 16.5C6.34 16.5 5 15.16 5 13.5H7L4.5 11Z"/>
</svg>
